<?xml version="1.0" encoding="UTF-8"?>
<svg viewBox="0 0 512 512" xmlns="http://www.w3.org/2000/svg" xmlns:xlink="http://www.w3.org/1999/xlink">
 <path d="m501 256a245 245 0 1 1 -490 0 245 245 0 1 1 490 0z" fill="#d7d4ce"/>
 <path d="m346 256a90 90 0 1 1 -180 0 90 90 0 1 1 180 0z" fill="#9e968d"/>
 <path d="m210.04 60.444 1.0102-23.584h5.8084l5.3033 14.647 5.3033-14.647h5.5558l1.5152 23.584h-4.2932l-1.2627-13.987-4.2932 13.987h-4.5457l-4.5457-14.492-0.75761 14.492h-4.7982zm30.305 0v-23.584h13.637v3.5355h-8.9651v5.8084h8.46v3.5355h-8.46v6.3134h9.2176v4.3909h-13.89zm19.303 0v-23.584h4.5472l9.2367 15.359v-15.359h4.35v23.584h-4.35l-9.2367-16.099v16.099h-4.5472zm24.007-23.584h4.9245v17.046c0 4.0426 8.2075 3.1668 8.2075 0v-17.046h5.177v17.551c0 4.1037-4.6088 6.0314-9.2176 6.0324s-9.2176-1.9246-9.2176-6.0324l0.12627-17.551z" fill="#a9a9a8"/>
 <path d="m227.84 451.29 22.962 11.784-22.856 12.333-0.10615-24.117zm36.365 24.117v-24.117h6.7765v24.117h-6.7765zm13.174 0v-24.117h6.7764v24.117h-6.7764z" fill="#a9a9a8"/>
 <path id="a" d="m65.443 256.05 18.409 11.25-0.0868-22.5-18.322 11.25zm-19.716 11.339v-23.125h-5.9821v23.214l5.9821-0.08928zm0.70662-11.339 18.409 11.25-0.0868-22.5-18.322 11.25z" fill="#a9a9a8"/>
 <use transform="matrix(-1,0,0,1,512,0)" width="512" height="520" xlink:href="#a"/>
</svg>
